PathFileType	4	(X/Y/Z)	C:\MyCloud\GitHub\OpenSimScripting\Matlab\Data\Gait2354_Simbody\Hip_Kinetic_SLOW_Crop_Marker.trc	
DataRate	CameraRate	NumFrames	NumMarkers	Units	OrigDataRate	OrigDataStartFrame	OrigNumFrames
100	100	9	34	mm	100	2797	1050
Frame#	Time	Torso2			Torso3			Torso4			Hip1			Hip2			LThigh1			LThigh2			LThigh3			LThigh4			RThigh1			RThigh2			RThigh3			RThigh4			RTibia1			RTibia2			RTibia3			RTibia4			LTibia1			LTibia2			LTibia3			LTibia4			LFoot1			LFoot2			LFoot3			LFoot4			RFoot1			RFoot2			RFoot3			RFoot4			C7			Torso5			C_31			C_32			C_33			
		X1	Y1	Z1	X2	Y2	Z2	X3	Y3	Z3	X4	Y4	Z4	X5	Y5	Z5	X6	Y6	Z6	X7	Y7	Z7	X8	Y8	Z8	X9	Y9	Z9	X10	Y10	Z10	X11	Y11	Z11	X12	Y12	Z12	X13	Y13	Z13	X14	Y14	Z14	X15	Y15	Z15	X16	Y16	Z16	X17	Y17	Z17	X18	Y18	Z18	X19	Y19	Z19	X20	Y20	Z20	X21	Y21	Z21	X22	Y22	Z22	X23	Y23	Z23	X24	Y24	Z24	X25	Y25	Z25	X26	Y26	Z26	X27	Y27	Z27	X28	Y28	Z28	X29	Y29	Z29	X30	Y30	Z30	X31	Y31	Z31	X32	Y32	Z32	X33	Y33	Z33	X34	Y34	Z34	

2797	7.88000	452.04230	-293.90350	-1290.36694	450.03033	-298.66129	-1220.92407	449.75836	-445.32141	-1343.47925	273.82025	-447.70786	-855.61090	244.62971	-143.28873	-877.51099	142.68971	-505.22598	-795.56812	128.41254	-534.76837	-411.61154	139.28712	-391.93301	-400.25500	239.25049	-483.09506	-670.19208	154.66341	-116.84335	-792.26514	127.11750	-94.12849	-410.96164	120.66050	-234.58685	-388.18442	208.61737	-142.17108	-501.46127	90.98730	-79.52184	-357.29141	37.88549	-93.19282	51.54947	86.65488	-178.42879	37.13222	151.78073	-113.74401	-322.53827	91.40594	-544.18243	-370.95688	29.33070	-546.76038	41.45013	77.55721	-462.75476	31.41224	146.29767	-516.96118	-323.78989	5.27923	-484.05954	19.38782	94.95291	-583.46875	149.59399	192.82054	-534.30145	179.40964	151.56377	-481.53372	156.89091	9.73954	-153.18385	21.08865	110.54679	-48.04119	134.31808	191.50160	-87.09714	176.39778	155.06377	-143.57179	164.60835	0.00000	0.00000	0.00000	434.99301	-157.30321	-1355.05115	0.00000	0.00000	0.00000	0.00000	0.00000	0.00000	0.00000	0.00000	0.00000	
2798	7.89000	451.76855	-293.84735	-1290.65161	449.83615	-298.61652	-1221.16589	449.54193	-445.31683	-1343.71252	273.85605	-447.72937	-855.64258	244.64905	-143.26181	-877.58398	142.62852	-505.23727	-795.65228	128.48842	-534.60321	-411.54190	139.21745	-391.73337	-400.27698	239.34605	-482.92752	-670.18762	154.66238	-116.83101	-792.31598	127.09088	-94.11180	-411.01178	120.53896	-234.45337	-388.22650	208.63521	-142.21236	-501.54724	91.02251	-79.45994	-357.34283	37.88506	-93.19053	51.52180	86.60041	-178.40108	37.08870	151.76816	-113.73662	-322.57776	91.65675	-544.11011	-370.97147	29.38182	-546.86780	41.38519	77.50397	-462.56180	31.36469	146.42688	-516.72369	-323.77515	5.22914	-483.98816	19.37335	95.11966	-583.16931	149.60811	192.95770	-533.66290	179.44682	151.56288	-481.07889	156.89708	9.67416	-153.17357	21.04095	110.56013	-48.05865	134.26558	191.49423	-87.04798	176.34073	155.15245	-143.53702	164.50056	0.00000	0.00000	0.00000	434.78351	-157.31592	-1355.25183	0.00000	0.00000	0.00000	0.00000	0.00000	0.00000	0.00000	0.00000	0.00000	
2799	7.90000	451.44556	-293.92151	-1290.87488	449.61905	-298.66129	-1221.39490	449.20499	-445.28183	-1343.91724	274.10709	-447.72534	-855.65692	244.77536	-143.33919	-877.57373	142.66716	-505.19116	-795.61676	128.56699	-534.53510	-411.53036	139.21373	-391.64313	-400.30719	239.35648	-482.80069	-670.22540	154.69025	-116.88223	-792.36169	127.17593	-94.08589	-411.03888	120.54416	-234.40071	-388.25644	208.76106	-142.27847	-501.61627	91.05768	-79.44069	-357.36960	37.86634	-93.21107	51.50987	86.80948	-178.55917	37.07409	151.77788	-113.70246	-322.59885	91.73740	-543.85803	-370.91403	28.71910	-546.89789	41.67440	77.51637	-462.36148	31.39472	146.68456	-516.56177	-323.74084	5.24177	-484.02560	19.38548	95.34541	-582.95117	149.62114	193.13005	-533.14355	179.54857	151.65005	-480.67868	156.95929	9.68729	-153.13199	21.01766	110.38142	-48.03241	134.21822	191.57118	-87.04363	176.30629	155.34196	-143.62012	164.43976	0.00000	0.00000	0.00000	434.61218	-157.40295	-1355.43713	0.00000	0.00000	0.00000	0.00000	0.00000	0.00000	0.00000	0.00000	0.00000	
2800	7.91000	450.89670	-294.01062	-1291.11096	449.20004	-298.78244	-1221.69702	448.74454	-445.36154	-1344.14807	273.88058	-447.55954	-855.68640	244.85826	-143.36763	-877.52710	142.76729	-505.13712	-795.58325	128.59915	-534.40454	-411.43600	139.17538	-391.50049	-400.26212	239.33130	-482.75085	-670.21832	154.70721	-116.82136	-792.41553	127.15392	-94.06039	-411.06772	120.48278	-234.53134	-388.35257	208.72301	-142.28592	-501.61673	90.98462	-79.38582	-357.33218	37.85411	-93.16015	51.53081	86.65680	-178.34998	37.10451	151.72525	-113.64812	-322.59378	91.94265	-544.01483	-370.89890	28.61136	-546.80133	41.77526	77.47516	-462.19861	31.46244	146.80609	-516.38605	-323.68698	5.25956	-484.06390	19.42807	95.49184	-582.62903	149.74625	193.22440	-532.63452	179.62601	151.63078	-480.28125	157.04980	9.74699	-153.14928	21.04610	110.47758	-47.99837	134.30977	191.53966	-86.98670	176.33211	155.22176	-143.51414	164.49063	0.00000	0.00000	0.00000	434.07101	-157.55782	-1355.62378	0.00000	0.00000	0.00000	0.00000	0.00000	0.00000	0.00000	0.00000	0.00000	
2801	7.92000	450.40295	-294.00894	-1291.34900	448.76144	-298.76697	-1221.92310	448.19513	-445.39951	-1344.42297	273.91888	-447.53207	-855.65955	244.91530	-143.35672	-877.45605	142.93913	-504.95749	-795.36615	128.58925	-534.28754	-411.30624	139.08269	-391.33807	-400.17188	239.26668	-482.70398	-670.20807	154.66017	-116.72409	-792.37439	127.06229	-93.90604	-411.00494	120.55364	-234.32845	-388.21912	208.69849	-142.28008	-501.58328	90.87756	-79.30605	-357.26956	37.79373	-93.07497	51.62920	86.73405	-178.28568	37.19193	151.63083	-113.50137	-322.50439	94.40371	-547.55835	-372.21393	28.79842	-546.77570	41.84836	77.40182	-462.04794	31.55121	146.81703	-516.26202	-323.50772	5.23353	-483.93652	19.48360	95.58611	-582.27454	149.92088	193.20720	-532.14380	179.77225	151.51326	-479.84244	157.17451	9.78000	-153.19540	21.06927	110.42500	-47.93150	134.39732	191.41722	-86.88083	176.43452	155.06026	-143.35672	164.62437	0.00000	0.00000	0.00000	433.36267	-157.65172	-1355.81787	0.00000	0.00000	0.00000	0.00000	0.00000	0.00000	0.00000	0.00000	0.00000	
2802	7.93000	450.04971	-294.09711	-1291.61267	448.34814	-298.90076	-1222.13147	447.60522	-445.42322	-1344.75110	274.22830	-447.42096	-855.49219	245.02768	-143.45193	-877.43164	142.75166	-505.06110	-795.33374	128.63065	-534.21173	-411.21466	138.97504	-391.24994	-400.01373	239.37186	-482.52142	-670.07129	154.69133	-116.77099	-792.25189	126.98452	-93.86115	-410.88062	120.57852	-234.12759	-388.03949	208.66826	-142.25499	-501.47076	90.78181	-79.22588	-357.15137	37.75716	-93.04623	51.74632	86.77235	-178.21777	37.31654	151.62721	-113.39346	-322.42288	92.28510	-544.02686	-370.75018	28.91556	-546.69653	41.96501	77.39836	-461.91238	31.68621	146.92210	-516.14258	-323.32336	5.31499	-484.03470	19.55393	95.76950	-582.01007	150.14278	193.18060	-531.72522	179.97174	151.50800	-479.56769	157.34586	9.80527	-153.08627	21.12423	110.32645	-47.80429	134.57790	191.39868	-86.71886	176.60591	155.17184	-143.24496	164.71297	0.00000	0.00000	0.00000	432.73492	-157.84639	-1356.10071	0.00000	0.00000	0.00000	0.00000	0.00000	0.00000	0.00000	0.00000	0.00000	
2803	7.94000	449.57556	-294.13333	-1291.86096	447.94110	-298.99304	-1222.42114	446.89697	-445.46979	-1345.03003	274.22586	-447.39679	-855.36090	245.01346	-143.48462	-877.34570	142.95358	-505.05026	-795.13324	128.66843	-534.12335	-411.09561	138.84267	-391.09366	-399.82718	239.36304	-482.42395	-669.89227	154.70503	-116.77283	-792.10870	126.99137	-93.81313	-410.80331	120.60600	-234.10617	-387.86325	208.63818	-142.18687	-501.31024	90.74998	-79.20036	-357.03943	37.68339	-93.00622	51.86066	86.93176	-178.18782	37.42434	151.60014	-113.32327	-322.31940	92.50275	-544.19873	-370.71713	28.86201	-546.65900	42.12145	77.38890	-461.84161	31.84659	147.07021	-516.00037	-323.12643	5.35277	-484.13449	19.61791	95.90855	-581.84027	150.41405	193.12672	-531.39404	180.23402	151.45467	-479.30814	157.50604	9.92270	-153.08992	21.14121	110.14708	-47.70335	134.72421	191.20955	-86.51141	176.83322	155.38400	-143.16539	164.75854	0.00000	0.00000	0.00000	431.98630	-157.89063	-1356.41931	0.00000	0.00000	0.00000	0.00000	0.00000	0.00000	0.00000	0.00000	0.00000	
2804	7.95000	448.91098	-294.12524	-1292.07166	447.32486	-299.07288	-1222.68982	446.08649	-445.56458	-1345.35840	274.03131	-447.26193	-855.25769	245.02519	-143.39340	-877.21906	142.86868	-505.07346	-794.89099	128.68434	-534.07294	-410.95590	138.59674	-390.92697	-399.61749	239.28534	-482.33420	-669.62872	154.64841	-116.67946	-791.92102	126.84093	-93.72488	-410.63843	120.53751	-234.09186	-387.71259	208.46777	-142.00299	-501.08530	90.67657	-79.11085	-356.94107	37.61621	-92.84930	51.99291	86.86729	-177.96040	37.63062	151.42386	-113.21919	-322.16321	92.70322	-544.29004	-370.66379	28.76654	-546.59137	42.33327	77.30247	-461.69690	32.00272	147.08058	-515.84796	-322.94199	5.42697	-483.99017	19.66608	95.79703	-581.57568	150.69928	192.99217	-531.12872	180.53822	151.23244	-479.04410	157.72435	12.49551	-158.01213	19.21667	109.82851	-47.48906	134.82074	190.88873	-86.17381	177.13487	155.21988	-142.93600	164.94121	0.00000	0.00000	0.00000	431.02094	-157.81093	-1356.56177	0.00000	0.00000	0.00000	0.00000	0.00000	0.00000	0.00000	0.00000	0.00000	
2805	7.96000	448.32736	-294.21576	-1292.20508	446.81174	-299.14520	-1222.89575	445.41220	-445.72565	-1345.57117	274.18884	-447.43402	-855.04626	245.05132	-143.37407	-877.02661	142.79195	-505.11774	-794.70172	128.65068	-533.93213	-410.78915	138.51707	-390.76120	-399.35782	239.42126	-482.11758	-669.26782	154.65970	-116.67292	-791.71747	126.79356	-93.68236	-410.42679	120.49538	-233.97325	-387.46423	208.38039	-141.92758	-500.86096	90.62999	-79.04152	-356.80457	37.52126	-92.77962	52.14614	86.81638	-177.77206	37.85083	151.40034	-113.13370	-321.99402	92.87354	-544.30176	-370.57681	28.83799	-546.53912	42.49672	77.29352	-461.65128	32.18987	147.07442	-515.69855	-322.73782	5.47017	-484.12915	19.77252	95.70792	-581.43451	151.01471	192.97110	-530.92456	180.91620	151.07207	-478.84073	157.96747	12.63201	-158.06059	19.24322	109.65302	-47.23018	135.02028	190.72723	-85.78812	177.45045	155.11259	-142.72302	165.23589	0.00000	0.00000	0.00000	430.40112	-157.76796	-1356.72534	0.00000	0.00000	0.00000	0.00000	0.00000	0.00000	0.00000	0.00000	0.00000	
